<svg width="180" height="30" viewBox="0 0 180 30" fill="none" xmlns="http://www.w3.org/2000/svg">
<g clip-path="url(#clip0_2_18)">
<rect x="78" y="19" width="105" height="8" fill="#F13F3F"/>
<rect x="-36" y="7" width="105" height="8" fill="white"/>
<path d="M9.76136 27V3.72727H19.375C21.1174 3.72727 22.6212 4.04167 23.8864 4.67045C25.1591 5.29167 26.1402 6.18561 26.8295 7.35227C27.5189 8.51136 27.8636 9.88636 27.8636 11.4773C27.8636 13.0909 27.5114 14.4621 26.8068 15.5909C26.1023 16.7121 25.1023 17.5682 23.8068 18.1591C22.5114 18.7424 20.9773 19.0341 19.2045 19.0341H13.125V14.6023H18.1591C19.0076 14.6023 19.7159 14.4924 20.2841 14.2727C20.8598 14.0455 21.2955 13.7045 21.5909 13.25C21.8864 12.7879 22.0341 12.197 22.0341 11.4773C22.0341 10.7576 21.8864 10.1629 21.5909 9.69318C21.2955 9.21591 20.8598 8.85985 20.2841 8.625C19.7083 8.38258 19 8.26136 18.1591 8.26136H15.3864V27H9.76136ZM22.8636 16.3636L28.6591 27H22.5227L16.8409 16.3636H22.8636ZM30.9489 27V3.72727H47.1761V8.29545H36.5739V13.0682H46.3466V17.6477H36.5739V22.4318H47.1761V27H30.9489ZM59.3011 27H50.6989V3.72727H59.2898C61.661 3.72727 63.7027 4.19318 65.4148 5.125C67.1345 6.04924 68.4602 7.38257 69.392 9.125C70.3239 10.8598 70.7898 12.9356 70.7898 15.3523C70.7898 17.7765 70.3239 19.8598 69.392 21.6023C68.4678 23.3447 67.1458 24.6818 65.4261 25.6136C63.7064 26.5379 61.6648 27 59.3011 27ZM56.3239 22.2045H59.0852C60.3883 22.2045 61.4905 21.9848 62.392 21.5455C63.3011 21.0985 63.9867 20.375 64.4489 19.375C64.9186 18.3674 65.1534 17.0265 65.1534 15.3523C65.1534 13.678 64.9186 12.3447 64.4489 11.3523C63.9792 10.3523 63.286 9.63258 62.3693 9.19318C61.4602 8.74621 60.339 8.52273 59.0057 8.52273H56.3239V22.2045Z" fill="#F13F3F"/>
<path d="M74.0739 27V3.72727H83.6875C85.4299 3.72727 86.9337 4.04167 88.1989 4.67045C89.4716 5.29167 90.4527 6.18561 91.142 7.35227C91.8314 8.51136 92.1761 9.88636 92.1761 11.4773C92.1761 13.0909 91.8239 14.4621 91.1193 15.5909C90.4148 16.7121 89.4148 17.5682 88.1193 18.1591C86.8239 18.7424 85.2898 19.0341 83.517 19.0341H77.4375V14.6023H82.4716C83.3201 14.6023 84.0284 14.4924 84.5966 14.2727C85.1723 14.0455 85.608 13.7045 85.9034 13.25C86.1989 12.7879 86.3466 12.197 86.3466 11.4773C86.3466 10.7576 86.1989 10.1629 85.9034 9.69318C85.608 9.21591 85.1723 8.85985 84.5966 8.625C84.0208 8.38258 83.3125 8.26136 82.4716 8.26136H79.6989V27H74.0739ZM87.1761 16.3636L92.9716 27H86.8352L81.1534 16.3636H87.1761ZM95.2614 27V3.72727H111.489V8.29545H100.886V13.0682H110.659V17.6477H100.886V22.4318H111.489V27H95.2614ZM115.011 27V3.72727H124.716C126.458 3.72727 127.917 3.97348 129.091 4.46591C130.273 4.95833 131.159 5.64773 131.75 6.53409C132.348 7.42045 132.648 8.44697 132.648 9.61364C132.648 10.5 132.462 11.2917 132.091 11.9886C131.72 12.678 131.208 13.25 130.557 13.7045C129.905 14.1591 129.152 14.4773 128.295 14.6591V14.8864C129.235 14.9318 130.102 15.1856 130.898 15.6477C131.701 16.1098 132.345 16.7538 132.83 17.5795C133.314 18.3977 133.557 19.3674 133.557 20.4886C133.557 21.7386 133.239 22.8561 132.602 23.8409C131.966 24.8182 131.045 25.5909 129.841 26.1591C128.636 26.7197 127.174 27 125.455 27H115.011ZM120.636 22.4659H124.114C125.333 22.4659 126.231 22.2348 126.807 21.7727C127.39 21.3106 127.682 20.6667 127.682 19.8409C127.682 19.2424 127.542 18.7273 127.261 18.2955C126.981 17.8561 126.583 17.5189 126.068 17.2841C125.553 17.0417 124.936 16.9205 124.216 16.9205H120.636V22.4659ZM120.636 13.2955H123.75C124.364 13.2955 124.909 13.1932 125.386 12.9886C125.864 12.7841 126.235 12.4886 126.5 12.1023C126.773 11.7159 126.909 11.25 126.909 10.7045C126.909 9.92424 126.633 9.31061 126.08 8.86364C125.527 8.41667 124.78 8.19318 123.841 8.19318H120.636V13.2955ZM136.261 27V3.72727H152.489V8.29545H141.886V13.0682H151.659V17.6477H141.886V22.4318H152.489V27H136.261ZM156.011 27V3.72727H161.636V22.4318H171.318V27H156.011Z" fill="white"/>
</g>
<defs>
<clipPath id="clip0_2_18">
<rect width="180" height="30" fill="white"/>
</clipPath>
</defs>
</svg>
